<svg width="187" height="32" viewBox="0 0 187 32" fill="none" xmlns="http://www.w3.org/2000/svg">
<g clip-path="url(#clip0_1_540)">
<path fill-rule="evenodd" clip-rule="evenodd" d="M6.50012 12.1061C14.8385 14.8232 21.8124 22.6143 22.4946 30.2874C26.4585 19.5272 17.5547 8.33647 0 8.19934C2.0151 13.6369 1.49711 18.8447 4.98406 23.7529C8.471 28.6418 13.9762 31.6779 19.9331 32C19.4593 24.2089 14.0899 16.0574 6.50012 12.1061Z" fill="#448E72" style="fill:#448E72;fill:color(display-p3 0.2667 0.5569 0.4471);fill-opacity:1;"/>
<path fill-rule="evenodd" clip-rule="evenodd" d="M31.7361 5.20787C26.5721 8.22163 23.0377 14.4341 23.6726 19.642C19.4813 13.066 23.8305 4.29258 35.52 1.6424C34.9546 5.57144 36.0411 8.97427 34.4082 12.7438C32.7784 16.5134 29.56 19.3454 25.6182 20.4201C24.8254 15.1453 27.248 8.92962 31.7361 5.20787Z" fill="#448E72" style="fill:#448E72;fill:color(display-p3 0.2667 0.5569 0.4471);fill-opacity:1;"/>
<path fill-rule="evenodd" clip-rule="evenodd" d="M15.382 2.33127C18.9163 4.27028 21.4083 8.38429 21.0672 11.9019C23.7614 7.37971 20.6819 1.57863 12.7542 0C13.2058 2.62787 12.5488 4.95595 13.7048 7.44668C14.8608 9.95974 17.1034 11.8094 19.7754 12.4728C20.205 8.9105 18.4615 4.75184 15.382 2.33127Z" fill="#448E72" style="fill:#448E72;fill:color(display-p3 0.2667 0.5569 0.4471);fill-opacity:1;"/>
<path d="M53.656 30.0833H42.5003V9.88959H53.5075V12.0168H44.9039V18.9372H52.5V21.0644H44.9039V27.953H53.656V30.0801V30.0833Z" fill="#282828" style="fill:#282828;fill:color(display-p3 0.1583 0.1583 0.1583);fill-opacity:1;"/>
<path d="M59.7676 30.0833H57.364V9.88959H59.7676V30.0801V30.0833ZM71.2486 30.0833H68.1344L60.2414 20.1076L67.8659 9.89278H70.8317L63.2072 20.1076L71.2486 30.0833Z" fill="#282828" style="fill:#282828;fill:color(display-p3 0.1583 0.1583 0.1583);fill-opacity:1;"/>
<path d="M86.4535 30.0833H83.4277L76.6622 9.89276H79.2427L81.8547 17.8912L84.969 27.8956C85.7397 25.3793 86.8072 22.0434 88.1748 17.8912L90.8437 9.89276H93.4242L86.4535 30.0833Z" fill="#282828" style="fill:#282828;fill:color(display-p3 0.1583 0.1583 0.1583);fill-opacity:1;"/>
<path d="M105.294 29.302C104.125 29.9207 102.704 30.23 101.02 30.23C98.7462 30.23 96.9111 29.5252 95.5183 28.1188C94.1222 26.7124 93.4274 24.8499 93.4274 22.5314C93.4274 20.2129 94.0496 18.2069 95.2972 16.8101C96.5448 15.4132 98.1461 14.7116 100.104 14.7116C102.063 14.7116 103.478 15.3207 104.583 16.539C105.692 17.7573 106.244 19.4858 106.244 21.7214C106.244 22.3592 106.194 22.9492 106.096 23.4882H95.8309C96.0078 24.9871 96.5732 26.1352 97.5207 26.9325C98.4714 27.7329 99.7159 28.1316 101.26 28.1316C102.941 28.1316 104.286 27.784 105.294 27.0823V29.2988V29.302ZM100.101 16.7814C98.9736 16.7814 98.0134 17.1896 97.2238 18.0092C96.4311 18.8288 95.9668 19.996 95.8278 21.5141H103.898V20.9145C103.898 19.6548 103.56 18.6534 102.89 17.904C102.217 17.1545 101.289 16.7814 100.101 16.7814Z" fill="#282828" style="fill:#282828;fill:color(display-p3 0.1583 0.1583 0.1583);fill-opacity:1;"/>
<path d="M121.67 30.0833H119.327V20.2575C119.327 19.1381 119.046 18.2866 118.48 17.6966C117.918 17.1067 117.179 16.8132 116.269 16.8132C115.142 16.8132 114.169 17.2534 113.348 18.1304C112.527 19.0106 112.116 20.2288 112.116 21.7851V30.0833H109.801V14.8966H112.116V17.534C113.007 15.6364 114.589 14.6893 116.863 14.6893C118.326 14.6893 119.494 15.1389 120.363 16.0383C121.231 16.9376 121.667 18.1367 121.667 19.6325V30.0865L121.67 30.0833Z" fill="#282828" style="fill:#282828;fill:color(display-p3 0.1583 0.1583 0.1583);fill-opacity:1;"/>
<path d="M133.36 29.6943C132.706 30.0546 131.976 30.2332 131.165 30.2332C128.199 30.2332 126.714 28.7056 126.714 25.6504V16.8133H124.311V14.8966H126.714V11.1206H129.058V14.8966H133.211V16.8133H129.058V25.711C129.058 27.3279 129.81 28.1379 131.313 28.1379C132.084 28.1379 132.766 27.9083 133.36 27.4491V29.6943Z" fill="#282828" style="fill:#282828;fill:color(display-p3 0.1583 0.1583 0.1583);fill-opacity:1;"/>
<path d="M148.46 30.0833H146.117V27.4459C145.327 29.3243 143.754 30.2619 141.398 30.2619C139.914 30.2619 138.742 29.8186 137.883 28.9289C137.024 28.0391 136.591 26.8463 136.591 25.3474V14.8934H138.934V24.7479C138.934 25.845 139.212 26.6837 139.765 27.2641C140.318 27.8446 141.07 28.1316 142.02 28.1316C143.268 28.1316 144.26 27.6915 145.002 26.8145C145.744 25.9374 146.114 24.7479 146.114 23.249V14.8902H148.457V30.077L148.46 30.0833Z" fill="#282828" style="fill:#282828;fill:color(display-p3 0.1583 0.1583 0.1583);fill-opacity:1;"/>
<path d="M155.106 30.0833H152.762L152.791 14.8965H155.106V17.5627C155.895 15.6843 157.263 14.7466 159.199 14.7466C159.556 14.7466 159.831 14.7658 160.03 14.8072V17.1449C159.613 17.0046 159.19 16.9344 158.754 16.9344C157.705 16.9344 156.834 17.4255 156.142 18.4014C155.45 19.3805 155.103 20.5094 155.103 21.7851V30.0833H155.106Z" fill="#282828" style="fill:#282828;fill:color(display-p3 0.1583 0.1583 0.1583);fill-opacity:1;"/>
<path d="M173.441 29.302C172.272 29.9207 170.848 30.23 169.167 30.23C166.893 30.23 165.058 29.5252 163.665 28.1188C162.272 26.7124 161.574 24.8499 161.574 22.5314C161.574 20.2129 162.197 18.2069 163.444 16.8101C164.692 15.4132 166.293 14.7116 168.251 14.7116C170.21 14.7116 171.625 15.3207 172.73 16.539C173.839 17.7573 174.391 19.4858 174.391 21.7214C174.391 22.3592 174.341 22.9492 174.243 23.4882H163.978C164.155 24.9871 164.72 26.1352 165.668 26.9325C166.618 27.7329 167.863 28.1316 169.407 28.1316C171.088 28.1316 172.433 27.784 173.444 27.0823V29.2988L173.441 29.302ZM168.248 16.7814C167.121 16.7814 166.16 17.1896 165.371 18.0092C164.581 18.8288 164.114 19.996 163.975 21.5141H172.045V20.9145C172.045 19.6548 171.707 18.6534 171.037 17.904C170.364 17.1545 169.436 16.7814 168.248 16.7814Z" fill="#282828" style="fill:#282828;fill:color(display-p3 0.1583 0.1583 0.1583);fill-opacity:1;"/>
<path d="M187 26.0395C187 27.3375 186.551 28.3676 185.651 29.1266C184.751 29.8856 183.519 30.2651 181.956 30.2651C180.137 30.2651 178.662 29.9558 177.534 29.3371V27.0313C178.861 27.8318 180.282 28.2304 181.807 28.2304C182.717 28.2304 183.409 28.0519 183.886 27.6915C184.36 27.3311 184.596 26.8432 184.596 26.2245C184.596 25.5069 184.334 24.9456 183.81 24.547C183.286 24.1483 182.411 23.6987 181.185 23.198C180.058 22.7579 179.154 22.2093 178.472 21.5492C177.79 20.889 177.449 20.0024 177.449 18.883C177.449 17.6233 177.919 16.6219 178.857 15.8725C179.796 15.123 180.967 14.7499 182.373 14.7499C183.936 14.7499 185.19 14.9699 186.141 15.41V17.6552C185.231 17.0971 183.984 16.8165 182.401 16.8165C181.612 16.8165 180.983 17.0014 180.519 17.3714C180.055 17.7413 179.821 18.2165 179.821 18.7937C179.821 19.1541 179.89 19.4666 180.029 19.7377C180.168 20.0088 180.44 20.2735 180.844 20.5318C181.248 20.7901 181.545 20.9655 181.735 21.0548C181.921 21.1441 182.332 21.3291 182.967 21.6098C184.233 22.1296 185.222 22.7196 185.932 23.3765C186.643 24.0367 187 24.9233 187 26.0427V26.0395Z" fill="#282828" style="fill:#282828;fill:color(display-p3 0.1583 0.1583 0.1583);fill-opacity:1;"/>
</g>
<defs>
<clipPath id="clip0_1_540">
<rect width="187" height="32" fill="white" style="fill:white;fill-opacity:1;"/>
</clipPath>
</defs>
</svg>
