<svg width="430" height="124" viewBox="0 0 430 124" fill="none" xmlns="http://www.w3.org/2000/svg">
<g filter="url(#filter0_d_1_159)">
<rect x="18" y="15.3759" width="394" height="63.2463" rx="12" fill="#F9BA05" fill-opacity="0.08" style="fill:#F9BA05;fill:color(display-p3 0.9765 0.7294 0.0196);fill-opacity:0.08;" shape-rendering="crispEdges"/>
<rect x="18.1" y="15.4759" width="393.8" height="63.0463" rx="11.9" stroke="#D3D3D3" style="stroke:#D3D3D3;stroke:color(display-p3 0.8289 0.8289 0.8289);stroke-opacity:1;" stroke-width="0.2" shape-rendering="crispEdges"/>
</g>
<path d="M18 27.3759C18 20.7484 23.3726 15.3759 30 15.3759H74.667V78.6222H30C23.3726 78.6222 18 73.2496 18 66.6222V27.3759Z" fill="#34A653" style="fill:#34A653;fill:color(display-p3 0.2039 0.6510 0.3255);fill-opacity:1;"/>
<g clip-path="url(#clip0_1_159)">
<path d="M45.2279 45.1789L43.1835 49.5152L40.987 42.5275C40.9256 42.3313 40.7597 42.1946 40.5647 42.1799C40.3703 42.1666 40.1879 42.2759 40.1007 42.4602L38.9519 44.8971H30.2752C30.0102 44.8971 29.7947 45.1256 29.7947 45.4067C29.7947 45.6877 30.0102 45.9162 30.2752 45.9162H39.248C39.4311 45.9162 39.5963 45.8083 39.6783 45.6345L40.4411 44.0169L42.6375 51.0045C42.699 51.2007 42.8649 51.3374 43.0599 51.3521C43.0711 51.3528 43.0823 51.3535 43.0942 51.3535C43.2773 51.3535 43.4419 51.2456 43.5239 51.0718L45.9549 45.9169H56.3124C56.483 45.5903 56.6264 45.249 56.7421 44.8971H45.6575C45.4744 44.8971 45.3092 45.0051 45.2272 45.1789H45.2279Z" fill="white" style="fill:white;fill-opacity:1;"/>
<path d="M62.3888 45.9169C62.6539 45.9169 62.8693 45.6884 62.8693 45.4074C62.8693 45.1263 62.6539 44.8979 62.3888 44.8979H58.7138C58.6285 45.2448 58.5228 45.5854 58.3978 45.9176H62.3888V45.9169Z" fill="white" style="fill:white;fill-opacity:1;"/>
<path d="M62.3888 44.4065H58.8209C58.7898 44.5712 58.7541 44.7352 58.7138 44.8971H62.3888C62.6539 44.8971 62.8694 45.1256 62.8694 45.4067C62.8694 45.6877 62.6539 45.9162 62.3888 45.9162H58.3978C58.3357 46.0816 58.2683 46.2456 58.1962 46.4068H62.3888C62.909 46.4068 63.332 45.9582 63.332 45.4067C63.332 44.8551 62.909 44.4065 62.3888 44.4065Z" fill="white" style="fill:white;fill-opacity:1;"/>
<path d="M45.9549 45.9169L43.5239 51.0718C43.4419 51.2456 43.2773 51.3535 43.0942 51.3535C43.083 51.3535 43.0711 51.3535 43.0599 51.3521C42.8649 51.3374 42.6996 51.2007 42.6375 51.0045L40.4411 44.0169L39.6783 45.6345C39.5963 45.8083 39.4318 45.9162 39.248 45.9162H30.2752C30.0102 45.9162 29.7947 45.6877 29.7947 45.4067C29.7947 45.1256 30.0102 44.8972 30.2752 44.8972H38.9512L40.1 42.4602C40.1873 42.2759 40.3697 42.1666 40.564 42.1799C40.759 42.1946 40.9242 42.3313 40.9864 42.5275L43.1828 49.5152L45.2272 45.1789C45.3092 45.0051 45.4738 44.8972 45.6575 44.8972H56.7421C56.795 44.736 56.8426 44.572 56.8835 44.4066H45.6575C45.2979 44.4066 44.9747 44.6182 44.8134 44.9595L43.2681 48.2361L41.4246 42.3719C41.3036 41.9865 40.9784 41.7194 40.5957 41.69C40.2144 41.662 39.8561 41.8778 39.6856 42.2409L38.6644 44.4066H30.2752C29.7551 44.4066 29.332 44.8551 29.332 45.4067C29.332 45.9583 29.7551 46.4068 30.2752 46.4068H39.248C39.6076 46.4068 39.9308 46.1952 40.0921 45.8538L40.3551 45.2959L42.1986 51.1601C42.3196 51.5456 42.6448 51.8126 43.0275 51.842C43.0499 51.8434 43.0718 51.8441 43.0942 51.8441C43.4538 51.8441 43.777 51.6325 43.9376 51.2911L46.2405 46.4075H56.0296C56.1307 46.2477 56.2245 46.0844 56.3118 45.9169H45.9543H45.9549Z" fill="white" style="fill:white;fill-opacity:1;"/>
<path d="M56.253 36.8912C54.7929 35.3429 52.8509 34.49 50.7854 34.49C48.9611 34.49 47.1936 35.1733 45.8069 36.4146L45.6575 36.5484L45.5081 36.4146C44.1221 35.1733 42.3539 34.49 40.5296 34.49C38.4641 34.49 36.5228 35.3429 35.062 36.8912C33.6019 38.4394 32.7975 40.4985 32.7975 42.6887C32.7975 42.9698 33.013 43.1982 33.2781 43.1982C33.5431 43.1982 33.7586 42.9698 33.7586 42.6887C33.7586 40.7711 34.4632 38.9685 35.7415 37.6123C37.0205 36.2562 38.7205 35.5097 40.529 35.5097C42.3374 35.5097 44.0374 36.2562 45.3164 37.6123C45.407 37.7084 45.528 37.7616 45.6562 37.7616C45.7844 37.7616 45.9054 37.7084 45.9959 37.6123C47.2749 36.2562 48.9749 35.5097 50.7834 35.5097C52.5918 35.5097 54.2918 36.2562 55.5708 37.6123C56.8498 38.9685 57.5538 40.7711 57.5538 42.6887C57.5538 44.6063 56.8492 46.4089 55.5708 47.7651L45.6562 58.2781L35.7428 47.7651C35.6523 47.6691 35.5313 47.6158 35.4031 47.6158C35.2749 47.6158 35.1539 47.6691 35.0634 47.7651C34.9728 47.8611 34.9232 47.9887 34.9226 48.1239V48.1274C34.9226 48.2627 34.9728 48.3903 35.0634 48.4856L45.3184 59.3595C45.4096 59.4555 45.5299 59.5088 45.6582 59.5088C45.7864 59.5088 45.9073 59.4555 45.9979 59.3595L56.253 48.4856C57.7131 46.9374 58.5175 44.8782 58.5175 42.688C58.5175 40.4978 57.7131 38.4394 56.253 36.8905V36.8912Z" fill="white" style="fill:white;fill-opacity:1;"/>
<path d="M58.7138 44.8971C58.7534 44.7352 58.7898 44.5712 58.8209 44.4065C58.926 43.8472 58.9802 43.2718 58.9802 42.6887C58.9802 40.3675 58.1275 38.1857 56.5801 36.5442C55.0321 34.9035 52.9745 33.9994 50.7854 33.9994C48.9168 33.9994 47.1037 34.6764 45.6582 35.9092C44.2119 34.6764 42.3989 33.9994 40.5303 33.9994C38.3411 33.9994 36.2835 34.9035 34.7355 36.5442C33.1875 38.1857 32.3355 40.3675 32.3355 42.6887C32.3355 43.2403 32.7585 43.6889 33.2787 43.6889C33.7989 43.6889 34.2219 43.2403 34.2219 42.6887C34.2219 40.9022 34.8783 39.2222 36.0694 37.9593C37.2611 36.6963 38.8448 36.0004 40.5296 36.0004C42.2145 36.0004 43.7988 36.6963 44.9899 37.9593C45.1684 38.1485 45.405 38.2522 45.6568 38.2522C45.9087 38.2522 46.146 38.1478 46.3238 37.9593C47.5155 36.6963 49.0992 36.0004 50.784 36.0004C52.4689 36.0004 54.0532 36.6963 55.2443 37.9593C56.4354 39.2229 57.0917 40.9022 57.0917 42.6887C57.0917 43.2767 57.0204 43.8529 56.8822 44.4065C56.8412 44.5719 56.7936 44.7359 56.7408 44.8971C56.6251 45.249 56.481 45.5896 56.3111 45.9169C56.2239 46.0844 56.13 46.2477 56.0289 46.4075C55.8015 46.7671 55.5391 47.1056 55.2443 47.4182L45.6568 57.5842L36.07 47.4182C35.8916 47.2289 35.6549 47.1252 35.4031 47.1252C35.1513 47.1252 34.914 47.2296 34.7362 47.4182C34.5604 47.6046 34.4619 47.8527 34.4599 48.1169V48.1337C34.4619 48.398 34.5597 48.6461 34.7362 48.8325L44.9912 59.7064C45.1697 59.8957 45.4063 59.9994 45.6582 59.9994C45.91 59.9994 46.1473 59.895 46.3251 59.7064L56.5801 48.8325C57.2557 48.1162 57.799 47.2962 58.1969 46.4068C58.2689 46.2456 58.3357 46.0816 58.3985 45.9162C58.5234 45.584 58.6292 45.2441 58.7144 44.8964L58.7138 44.8971ZM56.2523 48.4856L45.9972 59.3595C45.9067 59.4555 45.7857 59.5088 45.6575 59.5088C45.5293 59.5088 45.4083 59.4555 45.3178 59.3595L35.0627 48.4863C34.9721 48.3903 34.9226 48.2627 34.9219 48.1281V48.1246C34.9219 47.9887 34.9721 47.8611 35.0627 47.7658C35.1533 47.6698 35.2742 47.6165 35.4024 47.6165C35.5307 47.6165 35.6516 47.6698 35.7422 47.7658L45.6568 58.2788L55.5715 47.7658C56.8505 46.4096 57.5544 44.607 57.5544 42.6894C57.5544 40.7719 56.8498 38.9692 55.5715 37.6131C54.2925 36.2569 52.5925 35.5105 50.784 35.5105C48.9756 35.5105 47.2756 36.2569 45.9966 37.6131C45.906 37.7091 45.7851 37.7623 45.6568 37.7623C45.5286 37.7623 45.4077 37.7091 45.3171 37.6131C44.0381 36.2569 42.3381 35.5105 40.5296 35.5105C38.7212 35.5105 37.0212 36.2569 35.7422 37.6131C34.4632 38.9692 33.7593 40.7719 33.7593 42.6894C33.7593 42.9705 33.5438 43.1989 33.2787 43.1989C33.0137 43.1989 32.7982 42.9705 32.7982 42.6894C32.7982 40.4992 33.6026 38.4408 35.0627 36.8919C36.5235 35.3429 38.4647 34.49 40.5303 34.49C42.3546 34.49 44.1221 35.1733 45.5088 36.4146L45.6582 36.5484L45.8075 36.4146C47.1936 35.1733 48.9617 34.49 50.786 34.49C52.8516 34.49 54.7929 35.3429 56.2536 36.8912C57.7137 38.4394 58.5181 40.4985 58.5181 42.6887C58.5181 44.8789 57.7137 46.9374 56.2536 48.4863L56.2523 48.4856Z" fill="white" style="fill:white;fill-opacity:1;"/>
</g>
<path d="M392.648 53.0585L398.707 46.9994L392.648 40.9403" stroke="#333333" style="stroke:#333333;stroke:color(display-p3 0.2000 0.2000 0.2000);stroke-opacity:1;" stroke-linecap="round"/>
<path d="M162.114 40.2509V42.0853H154.478V30.1073H156.619V40.2509H162.114ZM166.705 42.2347C164.953 42.2347 163.7 41.1722 163.7 39.5121C163.7 37.8851 164.937 36.9305 167.145 36.806L169.485 36.6649V35.8846C169.485 34.9799 168.888 34.4735 167.775 34.4735C166.829 34.4735 166.182 34.8138 165.991 35.4364H164.048C164.214 33.851 165.717 32.8383 167.875 32.8383C170.208 32.8383 171.519 33.9672 171.519 35.8846V42.0853H169.535V40.8402H169.394C168.888 41.7201 167.892 42.2347 166.705 42.2347ZM167.311 40.6493C168.556 40.6493 169.485 39.8358 169.485 38.7567V38.0179L167.435 38.1591C166.281 38.2338 165.742 38.6571 165.742 39.4125C165.742 40.1927 166.397 40.6493 167.311 40.6493ZM174.001 42.0853V33.0126H175.985V34.4237H176.126C176.375 33.5272 177.354 32.8632 178.525 32.8632C178.824 32.8632 179.189 32.8964 179.38 32.9462V34.8221C179.222 34.764 178.674 34.7059 178.326 34.7059C176.989 34.7059 176.06 35.536 176.06 36.8143V42.0853H174.001ZM184.742 45.5385C182.41 45.5385 180.882 44.5175 180.716 42.9569H182.783C182.916 43.5961 183.646 44.0028 184.775 44.0028C186.187 44.0028 187.008 43.3221 187.008 42.1683V40.4418H186.867C186.344 41.4213 185.356 41.9525 184.095 41.9525C181.804 41.9525 180.376 40.1761 180.376 37.4535C180.376 34.6727 181.812 32.8632 184.128 32.8632C185.365 32.8632 186.444 33.4774 186.942 34.4652H187.083V33.0126H189.067V42.1351C189.067 44.2186 187.39 45.5385 184.742 45.5385ZM184.742 40.3173C186.178 40.3173 187.042 39.205 187.042 37.4535C187.042 35.6937 186.17 34.5814 184.742 34.5814C183.306 34.5814 182.493 35.6937 182.493 37.4452C182.493 39.205 183.306 40.3173 184.742 40.3173ZM197.517 39.6034H199.468C199.094 41.2386 197.575 42.2679 195.434 42.2679C192.761 42.2679 191.15 40.4916 191.15 37.5863C191.15 34.6727 192.786 32.8383 195.417 32.8383C198.007 32.8383 199.559 34.5565 199.559 37.4037V38.0594H193.217V38.1674C193.267 39.703 194.139 40.6659 195.492 40.6659C196.513 40.6659 197.218 40.2841 197.517 39.6034ZM195.409 34.4403C194.18 34.4403 193.317 35.3285 193.226 36.6898H197.5C197.459 35.3119 196.646 34.4403 195.409 34.4403ZM206.822 42.0853V34.6727H205.336V33.0707H206.822V32.1161C206.822 30.3065 207.744 29.4183 209.761 29.4183C210.201 29.4183 210.574 29.4432 210.906 29.5013V30.9872C210.74 30.9623 210.491 30.9374 210.201 30.9374C209.229 30.9374 208.848 31.369 208.848 32.2323V33.0707H210.823V34.6727H208.873V42.0853H206.822ZM216.401 42.2679C213.679 42.2679 212.035 40.4916 212.035 37.5448C212.035 34.6229 213.704 32.8383 216.401 32.8383C219.107 32.8383 220.768 34.6146 220.768 37.5448C220.768 40.4916 219.116 42.2679 216.401 42.2679ZM216.401 40.5829C217.837 40.5829 218.651 39.4706 218.651 37.5531C218.651 35.6356 217.829 34.5233 216.401 34.5233C214.965 34.5233 214.144 35.6356 214.144 37.5531C214.144 39.4706 214.965 40.5829 216.401 40.5829ZM222.843 42.0853V33.0126H224.827V34.4652H224.968C225.399 33.4525 226.312 32.8383 227.666 32.8383C229.691 32.8383 230.795 34.0585 230.795 36.2167V42.0853H228.736V36.6981C228.736 35.287 228.155 34.5814 226.902 34.5814C225.673 34.5814 224.901 35.4364 224.901 36.7977V42.0853H222.843ZM233.891 30.788H235.941V33.0707H237.884V34.6727H235.941V39.1884C235.941 40.0931 236.323 40.4999 237.187 40.4999C237.477 40.4999 237.635 40.4833 237.884 40.4584V42.0355C237.585 42.0936 237.203 42.1268 236.805 42.1268C234.721 42.1268 233.891 41.4296 233.891 39.6781V34.6727H232.455V33.0707H233.891V30.788ZM245.13 30.788H247.181V33.0707H249.123V34.6727H247.181V39.1884C247.181 40.0931 247.562 40.4999 248.426 40.4999C248.716 40.4999 248.874 40.4833 249.123 40.4584V42.0355C248.824 42.0936 248.442 42.1268 248.044 42.1268C245.96 42.1268 245.13 41.4296 245.13 39.6781V34.6727H243.694V33.0707H245.13V30.788ZM252.228 31.4935C251.555 31.4935 250.999 30.954 250.999 30.2733C250.999 29.601 251.555 29.0531 252.228 29.0531C252.908 29.0531 253.464 29.601 253.464 30.2733C253.464 30.954 252.908 31.4935 252.228 31.4935ZM251.207 42.0853V33.0126H253.257V42.0853H251.207ZM256.469 30.788H258.52V33.0707H260.462V34.6727H258.52V39.1884C258.52 40.0931 258.901 40.4999 259.765 40.4999C260.055 40.4999 260.213 40.4833 260.462 40.4584V42.0355C260.163 42.0936 259.781 42.1268 259.383 42.1268C257.299 42.1268 256.469 41.4296 256.469 39.6781V34.6727H255.033V33.0707H256.469V30.788ZM262.604 42.0853V29.5013H264.662V42.0853H262.604ZM273.187 39.6034H275.138C274.764 41.2386 273.245 42.2679 271.104 42.2679C268.431 42.2679 266.82 40.4916 266.82 37.5863C266.82 34.6727 268.456 32.8383 271.087 32.8383C273.677 32.8383 275.229 34.5565 275.229 37.4037V38.0594H268.887V38.1674C268.937 39.703 269.809 40.6659 271.162 40.6659C272.183 40.6659 272.888 40.2841 273.187 39.6034ZM271.079 34.4403C269.85 34.4403 268.987 35.3285 268.896 36.6898H273.17C273.129 35.3119 272.315 34.4403 271.079 34.4403Z" fill="#0A0C0B" style="fill:#0A0C0B;fill:color(display-p3 0.0392 0.0471 0.0431);fill-opacity:1;"/>
<path d="M165.178 60.8295H166.422C166.572 61.8617 167.557 62.5179 168.958 62.5179C170.284 62.5179 171.262 61.8002 171.262 60.8226C171.262 59.9818 170.647 59.4486 169.286 59.1068L168.022 58.7787C166.237 58.3275 165.465 57.5209 165.465 56.1195C165.465 54.4447 166.866 53.3099 168.951 53.3099C170.859 53.3099 172.28 54.4447 172.383 56.0375H171.146C170.975 55.0258 170.141 54.4242 168.91 54.4242C167.598 54.4242 166.73 55.0804 166.73 56.0785C166.73 56.851 167.27 57.2953 168.63 57.6439L169.662 57.9174C171.706 58.4301 172.527 59.223 172.527 60.6722C172.527 62.4838 171.098 63.639 168.842 63.639C166.75 63.639 165.308 62.5316 165.178 60.8295ZM180.388 56.0375V63.4066H179.267V62.2513H179.157C178.788 63.0717 178.002 63.5365 176.874 63.5365C175.22 63.5365 174.359 62.5521 174.359 60.809V56.0375H175.534V60.5219C175.534 61.848 176.027 62.4633 177.202 62.4633C178.501 62.4633 179.212 61.6908 179.212 60.3988V56.0375H180.388ZM186.267 63.5365C185.241 63.5365 184.366 63.0511 183.902 62.2308H183.792V63.4066H182.671V53.1117H183.847V57.1996H183.956C184.36 56.4066 185.255 55.9076 186.267 55.9076C188.14 55.9076 189.357 57.4047 189.357 59.722C189.357 62.0258 188.133 63.5365 186.267 63.5365ZM185.993 56.9672C184.653 56.9672 183.819 58.0199 183.819 59.722C183.819 61.4242 184.653 62.4769 185.993 62.4769C187.34 62.4769 188.14 61.4447 188.14 59.722C188.14 57.9994 187.34 56.9672 185.993 56.9672ZM195.639 59.9955H191.154V58.8812H195.639V59.9955ZM198.025 54.1302H199.2V56.0375H200.841V57.0219H199.2V61.1918C199.2 62.0599 199.528 62.4291 200.294 62.4291C200.506 62.4291 200.622 62.4222 200.841 62.4017V63.3929C200.609 63.434 200.383 63.4613 200.151 63.4613C198.633 63.4613 198.025 62.9008 198.025 61.4926V57.0219H196.835V56.0375H198.025V54.1302ZM203.234 54.6156C202.782 54.6156 202.413 54.2465 202.413 53.7953C202.413 53.3441 202.782 52.975 203.234 52.975C203.685 52.975 204.054 53.3441 204.054 53.7953C204.054 54.2465 203.685 54.6156 203.234 54.6156ZM202.646 63.4066V56.0375H203.821V63.4066H202.646ZM206.556 54.1302H207.732V56.0375H209.372V57.0219H207.732V61.1918C207.732 62.0599 208.06 62.4291 208.825 62.4291C209.037 62.4291 209.153 62.4222 209.372 62.4017V63.3929C209.14 63.434 208.914 63.4613 208.682 63.4613C207.164 63.4613 206.556 62.9008 206.556 61.4926V57.0219H205.366V56.0375H206.556V54.1302ZM211.218 63.4066V53.1117H212.394V63.4066H211.218ZM219.558 61.4994H220.734C220.392 62.7572 219.243 63.5365 217.63 63.5365C215.586 63.5365 214.308 62.0599 214.308 59.7289C214.308 57.4115 215.607 55.9076 217.63 55.9076C219.619 55.9076 220.829 57.3226 220.829 59.6127V60.0638H215.531V60.1185C215.593 61.5746 216.406 62.4974 217.657 62.4974C218.608 62.4974 219.25 62.1488 219.558 61.4994ZM217.616 56.9467C216.441 56.9467 215.62 57.808 215.531 59.1136H219.592C219.565 57.808 218.785 56.9467 217.616 56.9467Z" fill="#0A0C0B" style="fill:#0A0C0B;fill:color(display-p3 0.0392 0.0471 0.0431);fill-opacity:1;"/>
<g clip-path="url(#clip1_1_159)">
<path d="M231.369 57.383L233.266 63.7503L235.192 57.383H231.369Z" fill="#98D7FD" style="fill:#98D7FD;fill:color(display-p3 0.5961 0.8431 0.9922);fill-opacity:1;"/>
<path d="M235.192 57.383L233.266 54.2601L231.369 57.383H235.192Z" fill="#D2F1F9" style="fill:#D2F1F9;fill:color(display-p3 0.8235 0.9451 0.9765);fill-opacity:1;"/>
<path d="M236.565 54.2601H233.266L235.192 57.383L236.565 54.2601Z" fill="#6AC3F0" style="fill:#6AC3F0;fill:color(display-p3 0.4157 0.7647 0.9412);fill-opacity:1;"/>
<path d="M233.266 63.7503L238.89 57.383H235.192L233.266 63.7503Z" fill="#40A6DD" style="fill:#40A6DD;fill:color(display-p3 0.2510 0.6510 0.8667);fill-opacity:1;"/>
<path d="M235.192 57.383H238.89L236.565 54.2601L235.192 57.383Z" fill="#93D5EF" style="fill:#93D5EF;fill:color(display-p3 0.5765 0.8353 0.9373);fill-opacity:1;"/>
<path d="M233.266 54.2601H229.967L231.369 57.383L233.266 54.2601Z" fill="#83D0FE" style="fill:#83D0FE;fill:color(display-p3 0.5137 0.8157 0.9961);fill-opacity:1;"/>
<path d="M227.642 57.383L233.266 63.7503L231.369 57.383H227.642Z" fill="#61C4F7" style="fill:#61C4F7;fill:color(display-p3 0.3804 0.7686 0.9686);fill-opacity:1;"/>
<path d="M229.967 54.2601L227.642 57.383H231.369L229.967 54.2601Z" fill="#B9E4FC" style="fill:#B9E4FC;fill:color(display-p3 0.7255 0.8941 0.9882);fill-opacity:1;"/>
</g>
<g clip-path="url(#clip2_1_159)">
<path d="M244.728 57.383L246.625 63.7503L248.552 57.383H244.728Z" fill="#98D7FD" style="fill:#98D7FD;fill:color(display-p3 0.5961 0.8431 0.9922);fill-opacity:1;"/>
<path d="M248.552 57.383L246.625 54.2601L244.728 57.383H248.552Z" fill="#D2F1F9" style="fill:#D2F1F9;fill:color(display-p3 0.8235 0.9451 0.9765);fill-opacity:1;"/>
<path d="M249.924 54.2601H246.625L248.552 57.383L249.924 54.2601Z" fill="#6AC3F0" style="fill:#6AC3F0;fill:color(display-p3 0.4157 0.7647 0.9412);fill-opacity:1;"/>
<path d="M246.625 63.7503L252.249 57.383H248.552L246.625 63.7503Z" fill="#40A6DD" style="fill:#40A6DD;fill:color(display-p3 0.2510 0.6510 0.8667);fill-opacity:1;"/>
<path d="M248.552 57.383H252.249L249.924 54.2601L248.552 57.383Z" fill="#93D5EF" style="fill:#93D5EF;fill:color(display-p3 0.5765 0.8353 0.9373);fill-opacity:1;"/>
<path d="M246.625 54.2601H243.326L244.728 57.383L246.625 54.2601Z" fill="#83D0FE" style="fill:#83D0FE;fill:color(display-p3 0.5137 0.8157 0.9961);fill-opacity:1;"/>
<path d="M241.001 57.383L246.625 63.7503L244.728 57.383H241.001Z" fill="#61C4F7" style="fill:#61C4F7;fill:color(display-p3 0.3804 0.7686 0.9686);fill-opacity:1;"/>
<path d="M243.326 54.2601L241.001 57.383H244.728L243.326 54.2601Z" fill="#B9E4FC" style="fill:#B9E4FC;fill:color(display-p3 0.7255 0.8941 0.9882);fill-opacity:1;"/>
</g>
<g clip-path="url(#clip3_1_159)">
<path d="M258.087 57.383L259.984 63.7503L261.911 57.383H258.087Z" fill="#98D7FD" style="fill:#98D7FD;fill:color(display-p3 0.5961 0.8431 0.9922);fill-opacity:1;"/>
<path d="M261.911 57.383L259.984 54.2601L258.087 57.383H261.911Z" fill="#D2F1F9" style="fill:#D2F1F9;fill:color(display-p3 0.8235 0.9451 0.9765);fill-opacity:1;"/>
<path d="M263.283 54.2601H259.984L261.911 57.383L263.283 54.2601Z" fill="#6AC3F0" style="fill:#6AC3F0;fill:color(display-p3 0.4157 0.7647 0.9412);fill-opacity:1;"/>
<path d="M259.984 63.7503L265.608 57.383H261.911L259.984 63.7503Z" fill="#40A6DD" style="fill:#40A6DD;fill:color(display-p3 0.2510 0.6510 0.8667);fill-opacity:1;"/>
<path d="M261.911 57.383H265.608L263.283 54.2601L261.911 57.383Z" fill="#93D5EF" style="fill:#93D5EF;fill:color(display-p3 0.5765 0.8353 0.9373);fill-opacity:1;"/>
<path d="M259.984 54.2601H256.686L258.087 57.383L259.984 54.2601Z" fill="#83D0FE" style="fill:#83D0FE;fill:color(display-p3 0.5137 0.8157 0.9961);fill-opacity:1;"/>
<path d="M254.361 57.383L259.984 63.7503L258.087 57.383H254.361Z" fill="#61C4F7" style="fill:#61C4F7;fill:color(display-p3 0.3804 0.7686 0.9686);fill-opacity:1;"/>
<path d="M256.686 54.2601L254.361 57.383H258.087L256.686 54.2601Z" fill="#B9E4FC" style="fill:#B9E4FC;fill:color(display-p3 0.7255 0.8941 0.9882);fill-opacity:1;"/>
</g>
<defs>
<filter id="filter0_d_1_159" x="-12" y="0.375854" width="454" height="123.246" filterUnits="userSpaceOnUse" color-interpolation-filters="sRGB">
<feFlood flood-opacity="0" result="BackgroundImageFix"/>
<feColorMatrix in="SourceAlpha" type="matrix" values="0 0 0 0 0 0 0 0 0 0 0 0 0 0 0 0 0 0 127 0" result="hardAlpha"/>
<feOffset dy="15"/>
<feGaussianBlur stdDeviation="15"/>
<feComposite in2="hardAlpha" operator="out"/>
<feColorMatrix type="matrix" values="0 0 0 0 0 0 0 0 0 0 0 0 0 0 0 0 0 0 0.25 0"/>
<feBlend mode="normal" in2="BackgroundImageFix" result="effect1_dropShadow_1_159"/>
<feBlend mode="normal" in="SourceGraphic" in2="effect1_dropShadow_1_159" result="shape"/>
</filter>
<clipPath id="clip0_1_159">
<rect width="34" height="26" fill="white" style="fill:white;fill-opacity:1;" transform="translate(29.332 33.9994)"/>
</clipPath>
<clipPath id="clip1_1_159">
<rect width="11.2476" height="9.4902" fill="white" style="fill:white;fill-opacity:1;" transform="translate(227.642 54.2601)"/>
</clipPath>
<clipPath id="clip2_1_159">
<rect width="11.2476" height="9.4902" fill="white" style="fill:white;fill-opacity:1;" transform="translate(241.001 54.2601)"/>
</clipPath>
<clipPath id="clip3_1_159">
<rect width="11.2476" height="9.4902" fill="white" style="fill:white;fill-opacity:1;" transform="translate(254.361 54.2601)"/>
</clipPath>
</defs>
</svg>
